<?xml version="1.0" encoding="utf-8"?>
<!-- Generator: Adobe Illustrator 17.0.0, SVG Export Plug-In . SVG Version: 6.00 Build 0)  -->
<!DOCTYPE svg PUBLIC "-//W3C//DTD SVG 1.1//EN" "http://www.w3.org/Graphics/SVG/1.1/DTD/svg11.dtd">
<svg version="1.1" id="Layer_1" xmlns:sketch="http://www.bohemiancoding.com/sketch/ns"
	 xmlns="http://www.w3.org/2000/svg" xmlns:xlink="http://www.w3.org/1999/xlink" x="0px" y="0px" width="46px" height="46px"
	 viewBox="0 0 46 46" enable-background="new 0 0 46 46" xml:space="preserve">
<title>btn_google_light_normal_ios</title>
<desc>Created with Sketch.</desc>
<g id="Google-Button" sketch:type="MSPage">
	<g id="_x39_-PATCH" transform="translate(-608.000000, -160.000000)" sketch:type="MSArtboardGroup">
	</g>
	<g id="btn_google_light_normal" transform="translate(-1.000000, -1.000000)" sketch:type="MSArtboardGroup">
		<g id="logo_googleg_48dp" transform="translate(15.000000, 15.000000)" sketch:type="MSLayerGroup">
			<path id="Shape" sketch:type="MSShapeGroup" fill="#4285F4" d="M24.621,9.37c0-1.154-0.104-2.263-0.296-3.328H9v6.294h8.757
				c-0.377,2.034-1.524,3.757-3.247,4.911v4.083h5.259C22.846,18.497,24.621,14.325,24.621,9.37L24.621,9.37z"/>
			<path id="Shape_1_" sketch:type="MSShapeGroup" fill="#34A853" d="M9,25.272c4.393,0,8.077-1.457,10.769-3.942l-5.259-4.083
				C13.053,18.223,11.189,18.8,9,18.8c-4.238,0-7.825-2.862-9.105-6.709h-5.436v4.216C-2.864,21.626,2.639,25.272,9,25.272L9,25.272
				z"/>
			<path id="Shape_2_" sketch:type="MSShapeGroup" fill="#FBBC05" d="M-0.105,12.092C-0.43,11.115-0.615,10.072-0.615,9
				s0.185-2.115,0.51-3.092V1.692h-5.436C-6.643,3.889-7.272,6.374-7.272,9s0.629,5.111,1.731,7.308L-0.105,12.092L-0.105,12.092z"
				/>
			<path id="Shape_3_" sketch:type="MSShapeGroup" fill="#EA4335" d="M9-0.8c2.389,0,4.534,0.821,6.22,2.433l4.667-4.667
				C17.07-5.66,13.386-7.272,9-7.272c-6.361,0-11.864,3.646-14.541,8.965l5.436,4.216C1.175,2.062,4.762-0.8,9-0.8L9-0.8z"/>
			<path id="Shape_4_" sketch:type="MSShapeGroup" fill="none" d="M-7.272-7.272h32.544v32.544H-7.272V-7.272z"/>
		</g>
		<g id="handles_square" sketch:type="MSLayerGroup">
		</g>
	</g>
</g>
</svg>
